<svg width="140" height="24" viewBox="0 0 140 24" fill="none" xmlns="http://www.w3.org/2000/svg">
<path d="M0.109863 23.4722V0.916626H9.22724C10.6266 0.916626 11.8728 1.19589 12.966 1.7544C14.0811 2.29144 14.9447 3.06477 15.5569 4.0744C16.191 5.06255 16.508 6.25477 16.508 7.65107V8.06996C16.508 9.46626 16.1801 10.6692 15.5241 11.6788C14.8901 12.6885 14.0264 13.4618 12.9332 13.9988C11.84 14.5359 10.6047 14.8044 9.22724 14.8044H3.65187V23.4722H0.109863ZM3.65187 11.6466H8.86648C10.1127 11.6466 11.1076 11.3244 11.8509 10.68C12.5943 10.0355 12.966 9.15477 12.966 8.03774V7.71552C12.966 6.577 12.5943 5.68551 11.8509 5.04107C11.1076 4.39663 10.1127 4.0744 8.86648 4.0744H3.65187V11.6466Z" fill="white"/>
<path d="M27.0969 23.9233C25.4789 23.9233 24.0359 23.6011 22.7678 22.9566C21.5215 22.2907 20.5376 21.3455 19.8161 20.1211C19.0946 18.8966 18.7338 17.4466 18.7338 15.7711V15.2877C18.7338 13.6122 19.0946 12.1729 19.8161 10.97C20.5376 9.74552 21.5215 8.80033 22.7678 8.1344C24.0359 7.46848 25.4789 7.13552 27.0969 7.13552C28.7148 7.13552 30.1579 7.46848 31.426 8.1344C32.6941 8.80033 33.6889 9.74552 34.4105 10.97C35.132 12.1729 35.4927 13.6122 35.4927 15.2877V15.7711C35.4927 17.4466 35.132 18.8966 34.4105 20.1211C33.6889 21.3455 32.6941 22.2907 31.426 22.9566C30.1579 23.6011 28.7148 23.9233 27.0969 23.9233ZM27.0969 20.9589C28.5836 20.9589 29.7862 20.497 30.7045 19.5733C31.6446 18.6281 32.1147 17.3285 32.1147 15.6744V15.3844C32.1147 13.7303 31.6556 12.4414 30.7373 11.5177C29.819 10.5726 28.6055 10.1 27.0969 10.1C25.632 10.1 24.4294 10.5726 23.4893 11.5177C22.571 12.4414 22.1118 13.7303 22.1118 15.3844V15.6744C22.1118 17.3285 22.571 18.6281 23.4893 19.5733C24.4294 20.497 25.632 20.9589 27.0969 20.9589Z" fill="white"/>
<path d="M46.3232 23.9233C44.268 23.9233 42.5626 23.4722 41.207 22.57C39.8514 21.6677 39.0206 20.3037 38.7145 18.4777L41.8629 17.7366C42.0378 18.6174 42.333 19.3155 42.7484 19.8311C43.1638 20.3466 43.6776 20.7118 44.2898 20.9266C44.9239 21.1414 45.6017 21.2488 46.3232 21.2488C47.3946 21.2488 48.2145 21.0448 48.7829 20.6366C49.3733 20.2285 49.6684 19.7022 49.6684 19.0577C49.6684 18.4133 49.3951 17.9407 48.8485 17.64C48.3019 17.3392 47.493 17.0922 46.4216 16.8989L45.3065 16.7055C44.2133 16.5122 43.2185 16.2329 42.3221 15.8677C41.4256 15.5026 40.715 14.9977 40.1903 14.3533C39.6656 13.7088 39.4032 12.8818 39.4032 11.8722C39.4032 10.3685 39.9717 9.20848 41.1086 8.39218C42.2455 7.5544 43.7542 7.13552 45.6345 7.13552C47.4492 7.13552 48.936 7.54366 50.0948 8.35996C51.2755 9.15478 52.0407 10.2396 52.3905 11.6144L49.2421 12.4844C49.0453 11.5177 48.6299 10.8411 47.9958 10.4544C47.3618 10.0463 46.5747 9.84218 45.6345 9.84218C44.7162 9.84218 43.9947 10.014 43.4699 10.3577C42.9452 10.68 42.6828 11.1418 42.6828 11.7433C42.6828 12.3877 42.9343 12.8603 43.4371 13.1611C43.9619 13.4618 44.6615 13.6874 45.5361 13.8377L46.684 14.0311C47.8428 14.2244 48.9032 14.4929 49.8652 14.8366C50.8272 15.1803 51.5816 15.6744 52.1282 16.3188C52.6966 16.9633 52.9809 17.8226 52.9809 18.8966C52.9809 20.4863 52.3796 21.7214 51.1771 22.6022C49.9745 23.4829 48.3566 23.9233 46.3232 23.9233Z" fill="white"/>
<path d="M56.9292 23.4722V7.58663H60.3073V23.4722H56.9292ZM58.6347 5.42774C57.9787 5.42774 57.4212 5.22366 56.962 4.81552C56.5248 4.38589 56.3061 3.83811 56.3061 3.17218C56.3061 2.50626 56.5248 1.96922 56.962 1.56107C57.4212 1.13144 57.9787 0.916626 58.6347 0.916626C59.3124 0.916626 59.87 1.13144 60.3073 1.56107C60.7446 1.96922 60.9632 2.50626 60.9632 3.17218C60.9632 3.83811 60.7446 4.38589 60.3073 4.81552C59.87 5.22366 59.3124 5.42774 58.6347 5.42774Z" fill="white"/>
<path d="M71.3878 23.4722C70.4039 23.4722 69.6168 23.1822 69.0265 22.6022C68.458 22.0222 68.1738 21.2489 68.1738 20.2822V10.39H63.7135V7.58663H68.1738V2.3344H71.5518V7.58663H76.3729V10.39H71.5518V19.7022C71.5518 20.3466 71.8579 20.6688 72.4701 20.6688H75.8481V23.4722H71.3878Z" fill="white"/>
<path d="M80.3415 23.4722V7.58663H83.7195V23.4722H80.3415ZM82.0469 5.42774C81.3909 5.42774 80.8334 5.22366 80.3743 4.81552C79.937 4.38589 79.7183 3.83811 79.7183 3.17218C79.7183 2.50626 79.937 1.96922 80.3743 1.56107C80.8334 1.13144 81.3909 0.916626 82.0469 0.916626C82.7247 0.916626 83.2822 1.13144 83.7195 1.56107C84.1568 1.96922 84.3754 2.50626 84.3754 3.17218C84.3754 3.83811 84.1568 4.38589 83.7195 4.81552C83.2822 5.22366 82.7247 5.42774 82.0469 5.42774Z" fill="white"/>
<path d="M92.4715 23.4722L87.0273 7.58663H90.6021L94.8984 21.0233H95.4232L99.7195 7.58663H103.294L97.8501 23.4722H92.4715Z" fill="white"/>
<path d="M112.771 23.7622C111.546 23.7622 110.453 23.4937 109.491 22.9566C108.529 22.4196 107.775 21.657 107.228 20.6688C106.681 19.6807 106.408 18.4992 106.408 17.1244V7.58663H109.786V16.8989C109.786 18.2737 110.136 19.294 110.836 19.96C111.535 20.6044 112.508 20.9266 113.755 20.9266C115.132 20.9266 116.236 20.4755 117.067 19.5733C117.92 18.6496 118.346 17.3285 118.346 15.61V7.58663H121.724V23.4722H118.412V21.0877H117.887C117.581 21.7322 117.034 22.3444 116.247 22.9244C115.46 23.4829 114.301 23.7622 112.771 23.7622Z" fill="white"/>
<path d="M133.342 23.9233C131.287 23.9233 129.582 23.4722 128.226 22.57C126.871 21.6677 126.04 20.3037 125.734 18.4777L128.882 17.7366C129.057 18.6174 129.352 19.3155 129.768 19.8311C130.183 20.3466 130.697 20.7118 131.309 20.9266C131.943 21.1414 132.621 21.2488 133.342 21.2488C134.414 21.2488 135.234 21.0448 135.802 20.6366C136.392 20.2285 136.688 19.7022 136.688 19.0577C136.688 18.4133 136.414 17.9407 135.868 17.64C135.321 17.3392 134.512 17.0922 133.441 16.8989L132.326 16.7055C131.232 16.5122 130.238 16.2329 129.341 15.8677C128.445 15.5026 127.734 14.9977 127.209 14.3533C126.685 13.7088 126.422 12.8818 126.422 11.8722C126.422 10.3685 126.991 9.20848 128.128 8.39218C129.265 7.5544 130.773 7.13552 132.654 7.13552C134.468 7.13552 135.955 7.54366 137.114 8.35996C138.295 9.15478 139.06 10.2396 139.41 11.6144L136.261 12.4844C136.064 11.5177 135.649 10.8411 135.015 10.4544C134.381 10.0463 133.594 9.84218 132.654 9.84218C131.735 9.84218 131.014 10.014 130.489 10.3577C129.964 10.68 129.702 11.1418 129.702 11.7433C129.702 12.3877 129.953 12.8603 130.456 13.1611C130.981 13.4618 131.681 13.6874 132.555 13.8377L133.703 14.0311C134.862 14.2244 135.922 14.4929 136.884 14.8366C137.846 15.1803 138.601 15.6744 139.147 16.3188C139.716 16.9633 140 17.8226 140 18.8966C140 20.4863 139.399 21.7214 138.196 22.6022C136.994 23.4829 135.376 23.9233 133.342 23.9233Z" fill="white"/>
</svg>
